# Blender v3.0.1 OBJ File: 'Room-AKG.blend'
# www.blender.org
mtllib Sciana.mtl
o Cube_Baked_Baked_Cube.006
v 0.086336 -0.392885 0.000000
v -0.086336 1.320253 0.000000
v 0.086336 2.644809 0.000000
v 0.086336 -2.644809 0.000000
v -0.086336 2.644809 0.000000
v -0.086336 -2.644809 0.000000
v 0.108153 -0.331075 1.276221
v 0.108153 -0.331075 2.538692
v 0.108153 -0.392885 1.276221
v 0.108153 -0.392885 2.538692
v -0.111484 -0.331075 2.538692
v -0.111484 -0.331075 1.276221
v -0.111484 -0.392885 2.538692
v -0.111484 -0.392885 1.276221
v 0.086336 -0.331075 1.276221
v 0.086336 -0.331075 2.538692
v -0.086336 -0.331075 2.538692
v -0.086336 -0.331075 1.276221
v -0.086336 0.994973 1.276221
v -0.086336 1.611842 2.538692
v 0.086336 1.611842 2.538692
v -0.086336 1.611842 1.276221
v 0.086336 1.611842 1.276221
v -0.086336 -0.392885 2.538692
v 0.086336 -0.392885 2.538692
v -0.086336 -0.392885 1.276221
v 0.086336 -0.392885 1.276221
v 0.108153 -0.331075 -1.276221
v 0.108153 -0.331075 -2.538692
v 0.108153 -0.392885 -1.276221
v 0.108153 -0.392885 -2.538692
v -0.111484 -0.331075 -2.538692
v -0.111484 -0.331075 -1.276221
v -0.111484 -0.392885 -2.538692
v -0.111484 -0.392885 -1.276221
v 0.086336 -0.331075 -1.276221
v 0.086336 -0.331075 -2.538692
v -0.086336 -0.331075 -2.538692
v 0.086336 2.644809 3.392416
v 0.086336 -2.644809 3.392416
v -0.086336 -0.331075 -1.276221
v -0.086336 0.994973 -1.276221
v -0.086336 2.644809 3.392416
v -0.086336 -2.644809 3.392416
v 0.086336 -2.596039 3.392416
v -0.086336 -2.596039 3.392416
v 0.086336 -2.596039 3.373926
v 0.086336 -2.596039 0.000000
v -0.086336 1.611842 -2.538692
v -0.086336 -2.596039 0.000000
v 0.086336 1.611842 -2.538692
v -0.086336 1.611842 -1.276221
v 0.086336 1.611842 -1.276221
v -0.086336 -0.392885 -2.538692
v 0.086336 -0.392885 -2.538692
v -0.086336 -0.392885 -1.276221
v 0.086336 -0.392885 -1.276221
v 0.086336 2.644809 -3.392416
v -0.091067 -2.596039 0.000000
v -0.112286 -2.644809 0.000000
v -0.112286 -2.644809 3.392416
v -0.091067 -2.596039 3.392416
v 0.086336 -2.644809 -3.392416
v 0.086336 -2.620424 3.392416
v -0.086336 -2.620424 0.000000
v -0.086336 -2.620424 3.392416
v -0.086336 2.644809 -3.392416
v -0.112286 -2.620424 0.000000
v -0.112286 -2.620424 3.392416
v -0.086336 -2.644809 -3.392416
v 0.086336 -2.596039 -3.392416
v -0.086336 -2.596039 -3.392416
v 0.086336 -2.596039 -3.373926
v -0.112286 -2.644809 -3.392416
v -0.091067 -2.596039 -3.392416
v 0.086336 -2.620424 -3.392416
v -0.086336 -2.620424 -3.392416
v -0.112286 -2.620424 -3.392416
vt 0.000000 0.000000
vt 0.000000 0.000000
vt 0.000000 0.000000
vt 0.000000 0.000000
vt 0.000000 0.000000
vt 0.000000 0.000000
vt 0.000000 0.000000
vt 0.000000 0.000000
vt 0.875000 0.625000
vt 0.625000 0.750000
vt 0.625000 0.625000
vt 0.000000 0.000000
vt 0.000000 0.000000
vt 0.000000 0.000000
vt 0.625000 0.750000
vt 0.000000 0.000000
vt 0.000000 0.000000
vt 0.000000 0.000000
vt 0.000000 0.000000
vt 0.000000 0.000000
vt 0.000000 0.000000
vt 0.000000 0.000000
vt 0.000000 0.000000
vt 0.000000 0.000000
vt 0.000000 0.000000
vt 0.376152 1.000000
vt 0.377305 0.750000
vt 0.376153 0.750000
vt 0.377305 0.749319
vt 0.375000 0.750000
vt 0.576180 0.077975
vt 0.547025 0.077975
vt 0.562398 0.125000
vt 0.481431 0.672025
vt 0.481431 0.718543
vt 0.481431 0.718543
vt 0.000000 0.000000
vt 0.000000 0.000000
vt 0.000000 0.000000
vt 0.375000 0.625000
vt 0.125000 0.750000
vt 0.125000 0.625000
vt 0.125000 0.750000
vt 0.000000 0.000000
vt 0.000000 0.000000
vt 0.481431 0.031457
vt 0.481431 0.077975
vt 0.481431 0.077975
vt 0.000000 0.000000
vt 0.000000 0.000000
vt 0.000000 0.000000
vt 0.000000 0.000000
vt 0.377305 0.750000
vt 0.376152 1.000000
vt 0.376153 0.750000
vt 0.000000 0.000000
vt 0.000000 0.000000
vt 0.376153 0.125000
vt 0.377305 0.000000
vt 0.376152 0.000000
vt 0.000000 0.000000
vt 0.000000 0.000000
vt 0.481431 0.672025
vt 0.481431 0.718543
vt 0.377305 0.749319
vt 0.375000 0.750000
vt 0.000000 0.000000
vt 0.481431 0.077975
vt 0.481431 0.031457
vt 0.377305 0.000000
vt 0.000000 0.000000
vt 0.576180 0.077975
vt 0.576180 0.031457
vt 0.625000 0.000000
vt 0.481431 0.718543
vt 0.481431 0.672025
vt 0.481431 0.718543
vt 0.481431 0.672025
vt 0.481431 0.625000
vt 0.377305 0.625000
vt 0.377305 1.000000
vt 0.376152 1.000000
vt 0.481431 0.031457
vt 0.481431 0.077975
vt 0.481431 0.718543
vt 0.481431 0.077975
vt 0.481431 0.031457
vt 0.481431 0.077975
vt 0.377305 0.125000
vt 0.377305 0.000000
vt 0.576180 0.672025
vt 0.625000 1.000000
vt 0.377305 1.000000
vt 0.377305 1.000000
vt 0.377305 1.000000
vt 0.377305 0.000000
vt 0.376152 0.000000
vt 0.125000 0.625000
vt 0.375000 0.125000
vt 0.375000 0.000000
vt 0.576180 0.718543
vt 0.375000 1.000000
vt 0.375000 1.000000
vt 0.625000 1.000000
vt 0.375000 0.000000
vt 0.375000 1.000000
vt 0.375000 1.000000
vt 0.000000 0.000000
vt 0.000000 0.000000
vt 0.875000 0.750000
vt 0.000000 0.000000
vt 0.875000 0.750000
vt 0.625000 0.125000
vt 0.625000 0.000000
vt 0.576180 0.031457
vt 0.000000 0.000000
vt 0.481431 0.031457
vt 0.000000 0.000000
vt 0.000000 0.000000
vt 0.377305 0.125000
vt 0.481431 0.672025
vt 0.547025 0.077975
vt 0.481431 0.672025
vt 0.481431 0.031457
vt 0.576180 0.718543
vt 0.376152 1.000000
vt 0.125000 0.750000
vt 0.576180 0.672025
vt 0.125000 0.750000
vt 0.375000 0.125000
vt 0.376153 0.125000
vn 0.0000 0.0000 1.0000
vn -0.0000 0.0000 -1.0000
vn 0.0000 1.0000 0.0000
vn 1.0000 0.0000 0.0000
vn -1.0000 -0.0000 0.0000
vn 0.0000 -1.0000 -0.0000
vn -0.7544 0.6564 0.0000
usemtl Cube_Baked_Baked
s 1
f 25/1/1 17/2/1 24/3/1
f 57/4/2 56/5/2 42/6/2
f 25/1/1 8/7/1 16/8/1
f 5/9/3 39/10/3 3/11/3
f 36/12/1 56/5/1 57/4/1
f 24/3/2 21/13/2 25/1/2
f 17/2/1 13/14/1 24/3/1
f 58/15/3 5/9/3 3/11/3
f 38/16/2 55/17/2 54/18/2
f 16/8/3 7/19/3 15/20/3
f 15/20/2 9/21/2 27/22/2
f 19/23/1 26/24/1 27/22/1
f 55/17/1 49/25/1 54/18/1
f 77/26/2 71/27/2 76/28/2
f 76/28/4 73/29/4 63/30/4
f 52/31/5 42/32/5 2/33/5
f 27/34/6 10/35/6 25/36/6
f 26/24/2 12/37/2 18/38/2
f 30/39/1 36/12/1 57/4/1
f 4/40/6 44/41/6 6/42/6
f 70/43/6 4/40/6 6/42/6
f 21/13/6 22/44/6 23/45/6
f 26/24/2 15/20/2 27/22/2
f 13/46/5 12/47/5 14/48/5
f 18/38/3 11/49/3 17/2/3
f 37/50/3 41/51/3 36/12/3
f 29/52/2 55/17/2 37/50/2
f 45/53/1 66/54/1 64/55/1
f 33/56/1 56/5/1 41/51/1
f 28/57/3 37/50/3 36/12/3
f 68/58/7 75/59/7 78/60/7
f 53/61/6 49/25/6 51/62/6
f 9/63/4 8/64/4 10/35/4
f 47/65/4 64/55/4 40/66/4
f 32/67/3 41/51/3 38/16/3
f 56/68/5 54/69/5 72/70/5
f 34/71/2 38/16/2 54/18/2
f 22/72/5 20/73/5 43/74/5
f 18/38/3 16/8/3 15/20/3
f 4/40/4 47/65/4 40/66/4
f 29/75/4 30/76/4 31/77/4
f 57/78/4 1/79/4 48/80/4
f 66/54/1 62/81/1 69/82/1
f 24/83/6 14/48/6 26/84/6
f 31/77/6 57/78/6 55/85/6
f 33/86/5 34/87/5 35/88/5
f 48/80/4 1/79/4 27/34/4
f 50/89/5 46/90/5 26/84/5
f 23/91/4 3/11/4 39/10/4
f 45/53/1 43/92/1 46/93/1
f 77/26/2 75/94/2 72/95/2
f 35/88/6 54/69/6 56/68/6
f 4/40/4 73/29/4 48/80/4
f 62/96/7 68/58/7 69/97/7
f 44/41/6 60/98/6 6/42/6
f 50/89/3 62/96/3 46/90/3
f 69/97/5 60/99/5 61/100/5
f 51/101/4 55/85/4 58/15/4
f 66/54/1 61/102/1 44/103/1
f 67/104/2 71/27/2 72/95/2
f 64/55/1 44/103/1 40/66/1
f 60/98/6 70/43/6 6/42/6
f 75/59/3 50/89/3 72/70/3
f 60/99/5 78/60/5 74/105/5
f 74/106/2 77/26/2 70/107/2
f 70/107/2 76/28/2 63/30/2
f 25/1/1 16/8/1 17/2/1
f 52/108/2 53/61/2 42/6/2
f 53/61/2 57/4/2 42/6/2
f 25/1/1 10/109/1 8/7/1
f 5/9/3 43/110/3 39/10/3
f 36/12/1 41/51/1 56/5/1
f 24/3/2 20/111/2 21/13/2
f 17/2/1 11/49/1 13/14/1
f 58/15/3 67/112/3 5/9/3
f 38/16/2 37/50/2 55/17/2
f 16/8/3 8/7/3 7/19/3
f 15/20/2 7/19/2 9/21/2
f 27/22/1 23/45/1 19/23/1
f 23/45/1 22/44/1 19/23/1
f 55/17/1 51/62/1 49/25/1
f 77/26/2 72/95/2 71/27/2
f 76/28/4 71/27/4 73/29/4
f 2/33/5 5/113/5 52/31/5
f 5/113/5 67/114/5 52/31/5
f 67/114/5 49/115/5 52/31/5
f 27/34/6 9/63/6 10/35/6
f 26/24/2 14/116/2 12/37/2
f 30/39/1 28/57/1 36/12/1
f 4/40/6 40/66/6 44/41/6
f 70/43/6 63/30/6 4/40/6
f 21/13/6 20/111/6 22/44/6
f 26/24/2 18/38/2 15/20/2
f 13/46/5 11/117/5 12/47/5
f 18/38/3 12/37/3 11/49/3
f 37/50/3 38/16/3 41/51/3
f 29/52/2 31/118/2 55/17/2
f 45/53/1 46/93/1 66/54/1
f 33/56/1 35/119/1 56/5/1
f 28/57/3 29/52/3 37/50/3
f 68/58/7 59/120/7 75/59/7
f 53/61/6 52/108/6 49/25/6
f 9/63/4 7/121/4 8/64/4
f 47/65/4 45/53/4 64/55/4
f 32/67/3 33/56/3 41/51/3
f 50/89/5 2/33/5 56/68/5
f 2/33/5 42/32/5 56/68/5
f 49/115/5 67/114/5 54/69/5
f 67/114/5 72/70/5 54/69/5
f 50/89/5 56/68/5 72/70/5
f 34/71/2 32/67/2 38/16/2
f 43/74/5 5/113/5 22/72/5
f 5/113/5 2/33/5 22/72/5
f 2/33/5 19/122/5 22/72/5
f 18/38/3 17/2/3 16/8/3
f 4/40/4 48/80/4 47/65/4
f 29/75/4 28/123/4 30/76/4
f 48/80/4 73/29/4 57/78/4
f 73/29/4 55/85/4 57/78/4
f 66/54/1 46/93/1 62/81/1
f 24/83/6 13/46/6 14/48/6
f 31/77/6 30/76/6 57/78/6
f 33/86/5 32/124/5 34/87/5
f 25/36/4 47/65/4 27/34/4
f 47/65/4 48/80/4 27/34/4
f 46/90/5 43/74/5 24/83/5
f 43/74/5 20/73/5 24/83/5
f 19/122/5 2/33/5 26/84/5
f 2/33/5 50/89/5 26/84/5
f 46/90/5 24/83/5 26/84/5
f 39/10/4 45/53/4 25/36/4
f 45/53/4 47/65/4 25/36/4
f 25/36/4 21/125/4 39/10/4
f 23/91/4 27/34/4 1/79/4
f 23/91/4 1/79/4 3/11/4
f 39/10/4 21/125/4 23/91/4
f 45/53/1 39/10/1 43/92/1
f 77/26/2 78/126/2 75/94/2
f 35/88/6 34/87/6 54/69/6
f 4/40/4 63/30/4 73/29/4
f 62/96/7 59/120/7 68/58/7
f 44/41/6 61/127/6 60/98/6
f 50/89/3 59/120/3 62/96/3
f 69/97/5 68/58/5 60/99/5
f 73/29/4 71/27/4 55/85/4
f 71/27/4 58/15/4 55/85/4
f 3/11/4 1/79/4 53/128/4
f 1/79/4 57/78/4 53/128/4
f 3/11/4 53/128/4 58/15/4
f 53/128/4 51/101/4 58/15/4
f 66/54/1 69/82/1 61/102/1
f 67/104/2 58/15/2 71/27/2
f 64/55/1 66/54/1 44/103/1
f 60/98/6 74/129/6 70/43/6
f 75/59/3 59/120/3 50/89/3
f 60/99/5 68/58/5 78/60/5
f 74/106/2 78/126/2 77/26/2
f 70/107/2 77/26/2 76/28/2
s 2
f 6/130/2 68/58/2 65/131/2
f 65/131/2 59/120/2 50/89/2
f 6/130/2 60/99/2 68/58/2
f 65/131/2 68/58/2 59/120/2
